<?xml version="1.0" encoding="UTF-8"?>
<!-- Do not edit this file with editors other than draw.io -->
<!DOCTYPE svg PUBLIC "-//W3C//DTD SVG 1.1//EN" "http://www.w3.org/Graphics/SVG/1.1/DTD/svg11.dtd">
<svg xmlns="http://www.w3.org/2000/svg" style="background: transparent; background-color: transparent; color-scheme: light dark;" xmlns:xlink="http://www.w3.org/1999/xlink" version="1.1" width="342px" height="72px" viewBox="-0.5 -0.5 342 72" content="&lt;mxfile host=&quot;app.diagrams.net&quot; agent=&quot;Mozilla/5.0 (Windows NT 10.0; Win64; x64) AppleWebKit/537.36 (KHTML, like Gecko) Chrome/133.0.0.0 Safari/537.36&quot; version=&quot;26.0.16&quot;&gt;&#10;  &lt;diagram name=&quot;Page-1&quot; id=&quot;rFH6FngUR6DGAV2QqgqD&quot;&gt;&#10;    &lt;mxGraphModel dx=&quot;2074&quot; dy=&quot;772&quot; grid=&quot;1&quot; gridSize=&quot;10&quot; guides=&quot;1&quot; tooltips=&quot;1&quot; connect=&quot;1&quot; arrows=&quot;1&quot; fold=&quot;1&quot; page=&quot;1&quot; pageScale=&quot;1&quot; pageWidth=&quot;850&quot; pageHeight=&quot;1100&quot; math=&quot;0&quot; shadow=&quot;0&quot;&gt;&#10;      &lt;root&gt;&#10;        &lt;mxCell id=&quot;0&quot; /&gt;&#10;        &lt;mxCell id=&quot;1&quot; parent=&quot;0&quot; /&gt;&#10;        &lt;mxCell id=&quot;ZXMDqzkCLMlGSoZzjHFo-4&quot; style=&quot;edgeStyle=orthogonalEdgeStyle;rounded=0;orthogonalLoop=1;jettySize=auto;html=1;&quot; edge=&quot;1&quot; parent=&quot;1&quot; source=&quot;ZXMDqzkCLMlGSoZzjHFo-1&quot; target=&quot;ZXMDqzkCLMlGSoZzjHFo-3&quot;&gt;&#10;          &lt;mxGeometry relative=&quot;1&quot; as=&quot;geometry&quot; /&gt;&#10;        &lt;/mxCell&gt;&#10;        &lt;object label=&quot;&quot; id=&quot;ZXMDqzkCLMlGSoZzjHFo-1&quot;&gt;&#10;          &lt;mxCell style=&quot;fontColor=#0066CC;verticalAlign=top;verticalLabelPosition=bottom;labelPosition=center;align=center;html=1;outlineConnect=0;fillColor=#CCCCCC;strokeColor=#6881B3;gradientColor=none;gradientDirection=north;strokeWidth=2;shape=mxgraph.networks.pc;&quot; vertex=&quot;1&quot; parent=&quot;1&quot;&gt;&#10;            &lt;mxGeometry x=&quot;160&quot; y=&quot;210&quot; width=&quot;100&quot; height=&quot;70&quot; as=&quot;geometry&quot; /&gt;&#10;          &lt;/mxCell&gt;&#10;        &lt;/object&gt;&#10;        &lt;mxCell id=&quot;ZXMDqzkCLMlGSoZzjHFo-3&quot; value=&quot;&quot; style=&quot;fontColor=#0066CC;verticalAlign=top;verticalLabelPosition=bottom;labelPosition=center;align=center;html=1;outlineConnect=0;fillColor=#CCCCCC;strokeColor=#6881B3;gradientColor=none;gradientDirection=north;strokeWidth=2;shape=mxgraph.networks.switch;&quot; vertex=&quot;1&quot; parent=&quot;1&quot;&gt;&#10;          &lt;mxGeometry x=&quot;400&quot; y=&quot;230&quot; width=&quot;100&quot; height=&quot;30&quot; as=&quot;geometry&quot; /&gt;&#10;        &lt;/mxCell&gt;&#10;      &lt;/root&gt;&#10;    &lt;/mxGraphModel&gt;&#10;  &lt;/diagram&gt;&#10;&lt;/mxfile&gt;&#10;" resource="https://app.diagrams.net/#Hgskok%2Fultimate-cybersecurity-lab%2Fmain%2Fxpnets-seclab.drawio.svg#%7B%22pageId%22%3A%22rFH6FngUR6DGAV2QqgqD%22%7D"><defs/><g><g data-cell-id="0"><g data-cell-id="1"><g data-cell-id="ZXMDqzkCLMlGSoZzjHFo-4"><g><path d="M 101 36 L 234.63 36" fill="none" stroke="#000000" stroke-miterlimit="10" pointer-events="stroke" style="stroke: light-dark(rgb(0, 0, 0), rgb(255, 255, 255));"/><path d="M 239.88 36 L 232.88 39.5 L 234.63 36 L 232.88 32.5 Z" fill="#000000" stroke="#000000" stroke-miterlimit="10" pointer-events="all" style="fill: light-dark(rgb(0, 0, 0), rgb(255, 255, 255)); stroke: light-dark(rgb(0, 0, 0), rgb(255, 255, 255));"/></g></g><g data-cell-id="ZXMDqzkCLMlGSoZzjHFo-1"><g><rect x="1" y="1" width="30" height="60" rx="2" ry="2" fill="#cccccc" stroke="#6881b3" stroke-width="2" pointer-events="all" style="fill: light-dark(rgb(204, 204, 204), rgb(62, 62, 62)); stroke: light-dark(rgb(104, 129, 179), rgb(107, 129, 172));"/><path d="M 1 11 L 31 11 M 1 31 L 31 31" fill="none" stroke="#6881b3" stroke-width="2" stroke-linejoin="round" stroke-miterlimit="10" pointer-events="all" style="stroke: light-dark(rgb(104, 129, 179), rgb(107, 129, 172));"/><rect x="21" y="6" width="80" height="45" fill="#cccccc" stroke="#6881b3" stroke-width="2" pointer-events="all" style="fill: light-dark(rgb(204, 204, 204), rgb(62, 62, 62)); stroke: light-dark(rgb(104, 129, 179), rgb(107, 129, 172));"/><rect x="51" y="51" width="20" height="10" fill="#cccccc" stroke="#6881b3" stroke-width="2" pointer-events="all" style="fill: light-dark(rgb(204, 204, 204), rgb(62, 62, 62)); stroke: light-dark(rgb(104, 129, 179), rgb(107, 129, 172));"/><path d="M 36 60 L 86 60 L 96 71 L 26 71 Z" fill="#cccccc" stroke="#6881b3" stroke-width="2" stroke-linejoin="round" stroke-miterlimit="10" pointer-events="all" style="fill: light-dark(rgb(204, 204, 204), rgb(62, 62, 62)); stroke: light-dark(rgb(104, 129, 179), rgb(107, 129, 172));"/><path d="M 50 68.5 L 68 68.5 M 37 65.5 L 76 65.5 M 39 62.5 L 75 62.5 M 78 62.5 L 85 62.5 M 80 65.5 L 87 65.5 M 82 68.5 L 89 68.5" fill="none" stroke="#6881b3" stroke-width="2" stroke-linejoin="round" stroke-miterlimit="10" pointer-events="all" style="stroke: light-dark(rgb(104, 129, 179), rgb(107, 129, 172));"/><rect x="24" y="9" width="73" height="39" fill="#ffffff" stroke="none" pointer-events="all" style="fill: light-dark(rgb(255, 255, 255), rgb(18, 18, 18));"/><ellipse cx="6" cy="36" rx="2" ry="2" fill="#ffffff" stroke="none" pointer-events="all" style="fill: light-dark(rgb(255, 255, 255), rgb(18, 18, 18));"/></g></g><g data-cell-id="ZXMDqzkCLMlGSoZzjHFo-3"><g><rect x="241" y="21" width="100" height="25.86" rx="5.17" ry="5.17" fill="#cccccc" stroke="#6881b3" stroke-width="2" pointer-events="all" style="fill: light-dark(rgb(204, 204, 204), rgb(62, 62, 62)); stroke: light-dark(rgb(104, 129, 179), rgb(107, 129, 172));"/><rect x="251" y="46.86" width="80" height="4.14" fill="#cccccc" stroke="#6881b3" stroke-width="2" pointer-events="all" style="fill: light-dark(rgb(204, 204, 204), rgb(62, 62, 62)); stroke: light-dark(rgb(104, 129, 179), rgb(107, 129, 172));"/><ellipse cx="329" cy="33.93" rx="8" ry="8.275862068965518" fill="#ffffff" stroke="none" pointer-events="all" style="fill: light-dark(rgb(255, 255, 255), rgb(18, 18, 18));"/><ellipse cx="316" cy="26.17" rx="2" ry="2.0689655172413794" fill="#ffffff" stroke="none" pointer-events="all" style="fill: light-dark(rgb(255, 255, 255), rgb(18, 18, 18));"/><ellipse cx="316" cy="41.69" rx="2" ry="2.0689655172413794" fill="#ffffff" stroke="none" pointer-events="all" style="fill: light-dark(rgb(255, 255, 255), rgb(18, 18, 18));"/><ellipse cx="316" cy="33.93" rx="2" ry="2.0689655172413794" fill="#ffffff" stroke="none" pointer-events="all" style="fill: light-dark(rgb(255, 255, 255), rgb(18, 18, 18));"/><ellipse cx="306.5" cy="38.59" rx="2" ry="2.0689655172413794" fill="#ffffff" stroke="none" pointer-events="all" style="fill: light-dark(rgb(255, 255, 255), rgb(18, 18, 18));"/><ellipse cx="298" cy="38.59" rx="2" ry="2.0689655172413794" fill="#ffffff" stroke="none" pointer-events="all" style="fill: light-dark(rgb(255, 255, 255), rgb(18, 18, 18));"/><ellipse cx="289.5" cy="38.59" rx="2" ry="2.0689655172413794" fill="#ffffff" stroke="none" pointer-events="all" style="fill: light-dark(rgb(255, 255, 255), rgb(18, 18, 18));"/><ellipse cx="281" cy="38.59" rx="2" ry="2.0689655172413794" fill="#ffffff" stroke="none" pointer-events="all" style="fill: light-dark(rgb(255, 255, 255), rgb(18, 18, 18));"/><ellipse cx="272.5" cy="38.59" rx="2" ry="2.0689655172413794" fill="#ffffff" stroke="none" pointer-events="all" style="fill: light-dark(rgb(255, 255, 255), rgb(18, 18, 18));"/><ellipse cx="264" cy="38.59" rx="2" ry="2.0689655172413794" fill="#ffffff" stroke="none" pointer-events="all" style="fill: light-dark(rgb(255, 255, 255), rgb(18, 18, 18));"/><ellipse cx="255.5" cy="38.59" rx="2" ry="2.0689655172413794" fill="#ffffff" stroke="none" pointer-events="all" style="fill: light-dark(rgb(255, 255, 255), rgb(18, 18, 18));"/><ellipse cx="247" cy="38.59" rx="2" ry="2.0689655172413794" fill="#ffffff" stroke="none" pointer-events="all" style="fill: light-dark(rgb(255, 255, 255), rgb(18, 18, 18));"/><path d="M 244 28.24 L 250 28.24 L 250 31.34 L 248 31.34 L 248 32.38 L 246 32.38 L 246 31.34 L 244 31.34 Z M 252.5 28.24 L 258.5 28.24 L 258.5 31.34 L 256.5 31.34 L 256.5 32.38 L 254.5 32.38 L 254.5 31.34 L 252.5 31.34 Z M 261 28.24 L 267 28.24 L 267 31.34 L 265 31.34 L 265 32.38 L 263 32.38 L 263 31.34 L 261 31.34 Z M 269.5 28.24 L 275.5 28.24 L 275.5 31.34 L 273.5 31.34 L 273.5 32.38 L 271.5 32.38 L 271.5 31.34 L 269.5 31.34 Z M 278 28.24 L 284 28.24 L 284 31.34 L 282 31.34 L 282 32.38 L 280 32.38 L 280 31.34 L 278 31.34 Z M 286.5 28.24 L 292.5 28.24 L 292.5 31.34 L 290.5 31.34 L 290.5 32.38 L 288.5 32.38 L 288.5 31.34 L 286.5 31.34 Z M 295 28.24 L 301 28.24 L 301 31.34 L 299 31.34 L 299 32.38 L 297 32.38 L 297 31.34 L 295 31.34 Z M 303.5 28.24 L 309.5 28.24 L 309.5 31.34 L 307.5 31.34 L 307.5 32.38 L 305.5 32.38 L 305.5 31.34 L 303.5 31.34 Z" fill="#ffffff" stroke="none" pointer-events="all" style="fill: light-dark(rgb(255, 255, 255), rgb(18, 18, 18));"/><path d="M 323 30.31 L 325 28.24 L 327 30.31 M 323 37.55 L 325 39.62 L 327 37.55 M 331 30.31 L 333 28.24 L 335 30.31 M 331 37.55 L 333 39.62 L 335 37.55 M 333 39.62 L 333 36.52 L 325 31.34 L 325 28.24 M 325 39.62 L 325 36.52 L 333 31.34 L 333 28.24" fill="none" stroke="#6881b3" stroke-miterlimit="10" pointer-events="all" style="stroke: light-dark(rgb(104, 129, 179), rgb(107, 129, 172));"/></g></g></g></g></g></svg>